<mxfile host="app.diagrams.net" modified="2023-05-11T12:28:55.703Z" agent="Mozilla/5.0 (Windows NT 10.0; Win64; x64; rv:109.0) Gecko/20100101 Firefox/110.0" version="21.1.7" etag="dXd6RslMD1cAOpkvvl0L" type="github">
  <diagram name="第 1 页" id="8qAJab_w_wDQbJ2I9ibD">
    <mxGraphModel>
      <root>
        <mxCell id="0" />
        <mxCell id="1" parent="0" />
      </root>
    </mxGraphModel>
  </diagram>
</mxfile>
